<svg width="18" height="24" viewBox="0 0 18 24" fill="none" xmlns="http://www.w3.org/2000/svg">
<path d="M12 0H3V11H0V13H3V16H0V18H3V24H5V18H14V16H5V13H12C13.5907 12.9981 15.1158 12.3654 16.2406 11.2406C17.3654 10.1158 17.9981 8.59073 18 7V6C17.9981 4.40927 17.3654 2.88422 16.2406 1.75941C15.1158 0.634589 13.5907 0.00185261 12 0ZM16 7C15.9987 8.06046 15.5768 9.07711 14.827 9.82697C14.0771 10.5768 13.0605 10.9987 12 11H5V2H12C13.0605 2.00132 14.0771 2.42318 14.827 3.17303C15.5768 3.92289 15.9987 4.93954 16 6V7Z" fill="black"/>
</svg>
